<svg xmlns="http://www.w3.org/2000/svg" xmlns:xlink="http://www.w3.org/1999/xlink">
	<symbol id="search">
		<path d="m378.344 332.78c25.37-34.645 40.545-77.2 40.545-123.333 0-115.484-93.961-209.445-209.445-209.445s-209.444 93.961-209.444 209.445 93.961 209.445 209.445 209.445c46.133 0 88.692-15.177 123.337-40.547l137.212 137.212 45.564-45.564c0-.001-137.214-137.213-137.214-137.213zm-168.899 21.667c-79.958 0-145-65.042-145-145s65.042-145 145-145 145 65.042 145 145-65.043 145-145 145z">
		</path>
	</symbol>
	<symbol id="icon-close-modal">
		<path d="M9.4,8l6.3-6.3c0.4-0.4,0.4-1,0-1.4s-1-0.4-1.4,0L8,6.6L1.7,0.3c-0.4-0.4-1-0.4-1.4,0s-0.4,1,0,1.4L6.6,8  l-6.3,6.3c-0.4,0.4-0.4,1,0,1.4C0.5,15.9,0.7,16,1,16s0.5-0.1,0.7-0.3L8,9.4l6.3,6.3c0.2,0.2,0.5,0.3,0.7,0.3s0.5-0.1,0.7-0.3  c0.4-0.4,0.4-1,0-1.4L9.4,8z">
    	</path>
	</symbol>
</svg>